<?xml version="1.0" encoding="UTF-8"?>
<svg width="174px" height="47px" viewBox="0 0 174 47" version="1.1" xmlns="http://www.w3.org/2000/svg" xmlns:xlink="http://www.w3.org/1999/xlink">
    <!-- Generator: sketchtool 54.1 (76490) - https://sketchapp.com -->
    <title>8A68DA76-121F-4EEA-9DC8-8F93699B01E8</title>
    <desc>Created with sketchtool.</desc>
    <defs>
        <polygon id="path-1" points="1.45661261e-13 -12.6197294 21.603027 -12.6197294 21.603027 11.499896 1.45661261e-13 11.499896"></polygon>
    </defs>
    <g id="Page-1" stroke="none" stroke-width="1" fill="none" fill-rule="evenodd">
        <g id="Emails-Invite" transform="translate(-238.000000, -758.000000)">
            <g id="Group-22" transform="translate(238.000000, 771.000000)">
                <path d="M133.69871,20.1114076 C130.793686,20.1114076 128.941557,22.3733822 128.941557,25.1297467 C128.941557,27.8864623 130.793686,30.1480857 133.69871,30.1480857 C136.604094,30.1480857 138.456223,27.9925034 138.456223,25.1297467 C138.456223,22.2676923 136.604094,20.1114076 133.69871,20.1114076 M140.235464,33.0807171 C139.255096,33.0807171 138.456223,32.3040193 138.456223,31.3492989 L138.456223,30.5364347 C137.43905,32.2334423 135.514756,33.2222222 133.263191,33.2222222 C128.651091,33.2222222 125.382353,29.7597368 125.382353,25.1297467 C125.382353,20.5008099 128.54176,17.03692 133.263191,17.03692 C135.586921,17.03692 137.54802,18.1327943 138.456223,19.7585227 L138.456223,10.6407498 C138.456223,9.68673165 139.255096,8.94444444 140.235464,8.94444444 C141.216194,8.94444444 142.014706,9.68673165 142.014706,10.6407498 L142.014706,31.3492989 C142.014706,32.3040193 141.216194,33.0807171 140.235464,33.0807171" id="Fill-1" fill="#37A0D9"></path>
                <path d="M85.2950647,28.7248376 C83.1304295,31.4655786 79.546795,33.2222222 75.963513,33.2222222 C69.1505531,33.2222222 63.9705882,27.6712704 63.9705882,21.0660532 C63.9705882,14.4608359 69.1505531,8.94444444 75.963513,8.94444444 C78.9079809,8.94444444 81.7826445,9.96380042 83.9109674,12.001116 C84.3012363,12.3879127 84.5145269,12.8441792 84.5145269,13.3011439 C84.5145269,13.6879407 84.3724507,14.1092977 84.0886508,14.4255774 C83.7692437,14.812025 83.3077604,15.0228781 82.8462771,15.0228781 C82.4563608,15.0228781 82.0308372,14.8825421 81.6761755,14.6011719 C79.9726711,13.160808 78.3759883,12.4228222 75.963513,12.4228222 C70.9957811,12.4228222 67.8020629,16.4286817 67.8020629,21.0660532 C67.8020629,25.7037737 70.9957811,29.7794522 75.963513,29.7794522 C79.6176568,29.7794522 81.4981395,27.8821235 82.7757678,26.3712424 C83.0951749,26.0200534 83.5206985,25.8441097 83.9821817,25.8441097 C84.4080578,25.8441097 84.8691886,25.9847948 85.1885957,26.3010744 C85.5432574,26.617005 85.7205882,27.0383621 85.7205882,27.4956759 C85.7205882,27.9170329 85.578512,28.3736486 85.2950647,28.7248376" id="Fill-3" fill="#37A0D9"></path>
                <path d="M88.9385781,33.2222222 C87.8704141,33.2222222 87,32.4763004 87,31.5156435 L87,10.6863414 C87,9.72709727 87.8704141,8.94444444 88.9385781,8.94444444 C90.0067421,8.94444444 90.8382353,9.72709727 90.8382353,10.6863414 L90.8382353,31.5156435 C90.8382353,32.4763004 90.0067421,33.2222222 88.9385781,33.2222222" id="Fill-5" fill="#37A0D9"></path>
                <path d="M100.433643,19.7664835 C97.5286193,19.7664835 95.6396863,22.0879669 95.6396863,24.9168469 C95.6396863,27.7460872 97.5286193,30.0672102 100.433643,30.0672102 C103.339028,30.0672102 105.2276,27.7460872 105.2276,24.9168469 C105.2276,22.0879669 103.339028,19.7664835 100.433643,19.7664835 M100.433643,33.2222222 C95.8219043,33.2222222 92.1176471,29.523777 92.1176471,24.9168469 C92.1176471,20.3113582 95.8219043,16.6111111 100.433643,16.6111111 C105.045743,16.6111111 108.75,20.3113582 108.75,24.9168469 C108.75,29.523777 105.045743,33.2222222 100.433643,33.2222222" id="Fill-7" fill="#37A0D9"></path>
                <path d="M117.705521,33.2222222 C113.44941,33.2222222 110.029412,30.0818621 110.029412,26.163627 L110.029412,19.5439707 C110.029412,18.6318636 110.829737,17.8888889 111.811889,17.8888889 C112.79404,17.8888889 113.594727,18.6318636 113.594727,19.5439707 L113.594727,26.5012207 C113.594727,28.6291352 115.304545,30.284217 117.705521,30.284217 C120.106496,30.284217 121.817038,28.6291352 121.817038,26.5012207 L121.817038,19.5439707 C121.817038,18.6318636 122.617002,17.8888889 123.599876,17.8888889 C124.581666,17.8888889 125.382353,18.6318636 125.382353,19.5439707 L125.382353,26.163627 C125.382353,30.0818621 121.962354,33.2222222 117.705521,33.2222222" id="Fill-9" fill="#37A0D9"></path>
                <path d="M150.227427,22.066297 C148.355006,20.7550223 147.879355,18.156436 149.163717,16.2496079 C150.453977,14.347361 153.012987,13.8645751 154.889919,15.1688018 C154.951327,15.2121468 155.008225,15.260073 155.066163,15.3065896 C155.352386,15.5300103 155.60461,15.7833848 155.816589,16.0621319 C156.03169,16.3458127 156.205159,16.653809 156.340811,16.9762536 C156.874401,18.2480596 156.778993,19.7594966 155.953976,20.9858433 C154.663022,22.887033 152.104705,23.3698189 150.227427,22.066297 M155.825609,-1.4925976 C155.609467,-1.17402938 155.366958,-0.885767438 155.103979,-0.628516558 C153.259313,1.1729444 150.368284,1.47565468 148.173904,-0.0491734817 C145.672486,-1.80024146 145.03759,-5.27277593 146.752502,-7.82061683 C148.477128,-10.3617622 151.896196,-11.0066514 154.404553,-9.26474574 C156.512198,-7.78854857 157.294195,-5.09199552 156.462933,-2.75559369 C156.32173,-2.35879302 156.13369,-1.9736215 155.897425,-1.6060699 C155.873486,-1.56801087 155.850936,-1.52959943 155.825609,-1.4925976 M166.322201,10.9890036 C166.101895,10.8350055 165.903447,10.6612731 165.725121,10.4730923 C165.48053,10.2140794 165.27896,9.92511268 165.116593,9.61746882 C164.946594,9.29467182 164.823431,8.95108332 164.748146,8.59657046 C164.614228,7.96683441 164.631575,7.30467769 164.814411,6.67141765 C164.925431,6.28695092 165.095083,5.91235135 165.330307,5.56312447 C165.342102,5.54585695 165.355633,5.53035142 165.368123,5.51308389 C165.620346,5.15363746 165.922876,4.85233677 166.258017,4.60777224 C167.536135,3.67673549 169.297883,3.60167462 170.671408,4.55561726 C172.417891,5.77879234 172.86093,8.20258898 171.663996,9.98114403 C170.459776,11.7554703 168.073194,12.2058355 166.322201,10.9890036 M171.611955,3.16470052 C169.493209,1.68744615 166.71875,1.92108634 164.872002,3.56572997 L158.525476,-1.20539285 C160.165796,-4.74276864 159.091678,-9.06458342 155.814507,-11.3509447 C152.173746,-13.8892708 147.19901,-12.9504813 144.698632,-9.25311659 C142.199989,-5.5553995 143.12423,-0.502005509 146.763257,2.03808263 C150.06853,4.34206379 154.472553,3.78069304 157.126971,0.892435217 L163.417294,5.62127022 C162.886826,6.90928661 162.864275,8.32804283 163.297947,9.60161089 L156.317219,14.4396894 C156.128832,14.2656046 155.92865,14.1020917 155.712854,13.9519699 C153.175354,12.1825772 149.707715,12.8369812 147.965048,15.4133664 C146.223422,17.9908087 146.867685,21.512679 149.404491,23.2838337 C151.941645,25.0521692 155.409284,24.3981176 157.151951,21.8213801 C158.329803,20.0784173 158.41515,17.9034139 157.563072,16.1294401 L164.338413,11.4340829 C164.63782,11.7854242 164.987185,12.1043448 165.382,12.379568 C167.887582,14.1278168 171.312202,13.481518 173.033358,10.9361439 C174.753127,8.39112216 174.116844,4.91294931 171.611955,3.16470052" id="Fill-11" fill="#37A0D9"></path>
                <g id="Group-15" transform="translate(0.000000, 21.722222)">
                    <mask id="mask-2" fill="white">
                        <use xlink:href="#path-1"></use>
                    </mask>
                    <g id="Clip-14"></g>
                    <path d="M21.3516541,6.75289675 C19.055068,9.78969992 15.789359,11.499896 11.9495926,11.499896 C5.02382213,11.499896 -7.13114754e-05,5.81057214 -7.13114754e-05,-0.57691119 C-7.13114754e-05,-6.96508817 5.02382213,-12.6197294 11.9495926,-12.6197294 C15.2156582,-12.6197294 18.0506459,-11.4679223 20.095859,-9.30373183 C20.3108631,-9.09424929 20.4185434,-8.84973738 20.4185434,-8.57088976 C20.4185434,-8.32637786 20.3108631,-8.04753024 20.1315148,-7.87238341 C19.952523,-7.66290087 19.6651377,-7.5581596 19.4137648,-7.5581596 C19.1623918,-7.5581596 18.911732,-7.66290087 18.6963713,-7.83770087 C16.7941377,-9.37379056 14.8562484,-10.5602802 11.9495926,-10.5602802 C6.13628115,-10.5602802 2.36853934,-5.77859849 2.36853934,-0.57691119 C2.36853934,4.62338881 6.13628115,9.44044675 11.9495926,9.44044675 C15.6820352,9.44044675 17.8345721,7.73025071 19.772818,5.4262896 C19.9878221,5.1817777 20.2748508,5.07703643 20.5622361,5.07703643 C20.813609,5.07703643 21.0642689,5.14709516 21.2439738,5.32154833 C21.4953467,5.5313777 21.603027,5.77554278 21.603027,6.05508405 C21.603027,6.2989023 21.5310025,6.54341421 21.3516541,6.75289675" id="Fill-13" fill="#37A0D9" mask="url(#mask-2)"></path>
                </g>
                <path d="M30.0661765,18.5336684 C26.5437,18.5336684 23.8926414,21.4349821 23.8926414,24.9168469 C23.8926414,28.3987116 26.5437,31.3000253 30.0661765,31.3000253 C33.5890138,31.3000253 36.2039888,28.3987116 36.2039888,24.9168469 C36.2039888,21.4349821 33.5890138,18.5336684 30.0661765,18.5336684 M37.2933513,33.0769944 C36.67524,33.0769944 36.2039888,32.6056345 36.2039888,31.9894071 L36.2039888,30.139644 C35.1146264,31.7357089 32.7175959,33.2222222 29.9936485,33.2222222 C25.5268655,33.2222222 21.75,29.523777 21.75,24.9168469 C21.75,20.3109978 25.4543376,16.6111111 30.0661765,16.6111111 C34.6783762,16.6111111 38.3823529,20.3109978 38.3823529,24.9168469 L38.3823529,31.9894071 C38.3823529,32.6056345 37.9107409,33.0769944 37.2933513,33.0769944" id="Fill-16" fill="#37A0D9"></path>
                <path d="M47.7008287,19.6792096 C44.5982902,19.6792096 41.742035,21.7390012 41.742035,24.8464745 L41.742035,32.209441 C41.742035,32.7497252 41.2487678,33.2222222 40.6843833,33.2222222 C40.120349,33.2222222 39.6617647,32.7832832 39.6617647,32.209441 L39.6617647,19.0379157 C39.6617647,18.4630667 40.0849655,18.0241277 40.6843833,18.0241277 C41.2487678,18.0241277 41.742035,18.4630667 41.742035,19.0379157 L41.742035,20.7601136 C42.9762539,18.9030124 45.0919077,17.8888889 47.7008287,17.8888889 C48.2298297,17.8888889 48.6176471,18.2942698 48.6176471,18.8006605 C48.6176471,19.3080578 48.2298297,19.6792096 47.7008287,19.6792096" id="Fill-18" fill="#37A0D9"></path>
                <path d="M56.3634865,18.4609144 C53.306772,18.4609144 51.0838638,20.7817274 50.7708413,23.8647329 L61.8864177,23.8647329 C61.5733952,20.8184857 59.4195107,18.4609144 56.3634865,18.4609144 M63.1712938,25.4972303 L50.7708413,25.4972303 C50.8754122,28.7615043 53.3764859,31.3727793 56.6064499,31.3727793 C58.8987269,31.3727793 60.4621137,30.3208456 61.7473349,28.8339396 C61.9557865,28.5802358 62.1638929,28.4710423 62.4072015,28.4710423 C62.5807961,28.4710423 62.7895928,28.543838 62.9631874,28.6887086 C63.1712938,28.8699771 63.2751745,29.1244016 63.2751745,29.377745 C63.2751745,29.5593738 63.2061508,29.7770402 63.067068,29.9583086 C61.8864177,31.6268435 59.4195107,33.2222222 56.5367359,33.2222222 C52.1257765,33.2222222 48.6176471,29.5593738 48.6176471,24.917027 C48.6176471,20.2739595 51.9521819,16.6111111 56.3634865,16.6111111 C60.7050771,16.6111111 63.9705882,20.3107177 63.9705882,24.7361189 C63.9705882,25.2071287 63.6572206,25.4972303 63.1712938,25.4972303" id="Fill-20" fill="#37A0D9"></path>
            </g>
        </g>
    </g>
</svg>